<svg width="636" height="143" viewBox="0 0 636 143" fill="none" xmlns="http://www.w3.org/2000/svg">
<path d="M105.684 82.7025L56.0862 111.685L6.48838 82.7025C5.50003 82.1249 4.32312 81.9643 3.21654 82.256C2.10997 82.5476 1.16438 83.2677 0.587794 84.2577C0.0112108 85.2478 -0.149137 86.4268 0.142025 87.5352C0.433188 88.6437 1.15201 89.5909 2.14036 90.1685L53.9121 120.421C54.572 120.807 55.3222 121.01 56.0862 121.01C56.8501 121.01 57.6003 120.807 58.2602 120.421L110.032 90.1685C110.521 89.8825 110.95 89.5028 111.293 89.051C111.635 88.5992 111.886 88.0841 112.03 87.5352C112.174 86.9864 112.209 86.4144 112.133 85.8521C112.056 85.2897 111.87 84.748 111.585 84.2577C111.299 83.7675 110.92 83.3384 110.469 82.995C110.018 82.6515 109.504 82.4004 108.956 82.256C108.408 82.1115 107.837 82.0766 107.276 82.1533C106.714 82.2299 106.173 82.4165 105.684 82.7025Z" fill="#D084FF"/>
<path d="M105.684 56.7718L56.0862 85.7539L6.48838 56.7718C5.50003 56.1943 4.32312 56.0336 3.21654 56.3253C2.10997 56.617 1.16438 57.337 0.587794 58.3271C0.0112108 59.3171 -0.149137 60.4961 0.142025 61.6046C0.433188 62.7131 1.15201 63.6603 2.14036 64.2379L53.9121 94.4903C54.572 94.8759 55.3222 95.0791 56.0862 95.0791C56.8501 95.0791 57.6003 94.8759 58.2602 94.4903L110.032 64.2379C111.02 63.6603 111.739 62.7131 112.03 61.6046C112.321 60.4961 112.161 59.3171 111.585 58.3271C111.008 57.337 110.062 56.617 108.956 56.3253C107.849 56.0336 106.672 56.1943 105.684 56.7718Z" fill="#D084FF"/>
<path d="M2.14037 38.3072L53.9122 68.5596C54.572 68.9452 55.3222 69.1484 56.0862 69.1484C56.8501 69.1484 57.6003 68.9452 58.2602 68.5596L110.032 38.3072C110.683 37.9266 111.224 37.3816 111.599 36.7267C111.975 36.0717 112.172 35.3295 112.172 34.5742C112.172 33.8189 111.975 33.0767 111.599 32.4217C111.224 31.7668 110.683 31.2218 110.032 30.8412L58.2602 0.588755C57.6003 0.203173 56.8501 0 56.0862 0C55.3222 0 54.572 0.203173 53.9122 0.588755L2.14037 30.8412C1.48908 31.2218 0.948745 31.7668 0.573212 32.4217C0.197679 33.0767 6.58418e-05 33.8189 6.58418e-05 34.5742C6.58418e-05 35.3295 0.197679 36.0717 0.573212 36.7267C0.948745 37.3816 1.48908 37.9266 2.14037 38.3072Z" fill="#D084FF"/>
<path d="M198.917 10.7443C214.315 10.7443 226.137 13.481 234.382 18.9543C242.628 24.3282 246.75 33.185 246.75 45.5249C246.75 57.9643 242.578 66.9704 234.233 72.5433C225.888 78.0166 213.967 80.7533 198.47 80.7533H191.168V115.385H167.921V13.4313C172.988 12.4361 178.353 11.7395 184.015 11.3414C189.678 10.9434 194.645 10.7443 198.917 10.7443ZM200.407 30.5976C198.718 30.5976 197.029 30.6474 195.34 30.7469C193.751 30.8464 192.36 30.9459 191.168 31.0454V60.9H198.47C206.516 60.9 212.576 59.8053 216.649 57.616C220.722 55.4267 222.759 51.3465 222.759 45.3756C222.759 42.4897 222.213 40.1013 221.12 38.2105C220.126 36.3197 218.636 34.827 216.649 33.7323C214.762 32.5382 212.427 31.742 209.646 31.344C206.864 30.8464 203.784 30.5976 200.407 30.5976Z" fill="url(#paint0_linear_3_27)"/>
<path d="M254.932 76.7229C254.932 69.7568 255.975 63.6864 258.062 58.5116C260.247 53.2373 263.078 48.8587 266.555 45.3756C270.033 41.8926 274.006 39.2554 278.477 37.4642C283.047 35.6729 287.716 34.7773 292.484 34.7773C303.611 34.7773 312.402 38.2105 318.86 45.0771C325.317 51.8441 328.546 61.8454 328.546 75.0809C328.546 76.3746 328.496 77.8176 328.397 79.4098C328.297 80.9025 328.198 82.246 328.099 83.4402H277.732C278.228 88.0179 280.364 91.6502 284.139 94.3371C287.914 97.024 292.981 98.3674 299.339 98.3674C303.412 98.3674 307.386 98.0191 311.26 97.3225C315.234 96.5264 318.462 95.581 320.946 94.4864L323.926 112.548C322.734 113.145 321.145 113.743 319.158 114.34C317.171 114.937 314.936 115.434 312.452 115.832C310.068 116.33 307.485 116.728 304.703 117.027C301.922 117.325 299.14 117.474 296.359 117.474C289.305 117.474 283.146 116.429 277.881 114.34C272.715 112.25 268.393 109.414 264.916 105.831C261.539 102.149 259.005 97.8201 257.317 92.8444C255.727 87.8686 254.932 82.4948 254.932 76.7229ZM307.088 68.2144C306.988 66.3236 306.641 64.4825 306.044 62.6913C305.548 60.9 304.703 59.3077 303.511 57.9145C302.418 56.5213 300.978 55.3769 299.19 54.4813C297.501 53.5856 295.365 53.1378 292.782 53.1378C290.299 53.1378 288.163 53.5856 286.374 54.4813C284.586 55.2774 283.096 56.372 281.904 57.7653C280.712 59.1585 279.768 60.8005 279.073 62.6913C278.477 64.4825 278.03 66.3236 277.732 68.2144H307.088Z" fill="url(#paint1_linear_3_27)"/>
<path d="M391.428 56.5711C389.441 56.0735 387.106 55.5759 384.424 55.0784C381.742 54.4813 378.861 54.1827 375.781 54.1827C374.39 54.1827 372.702 54.332 370.715 54.6305C368.827 54.8296 367.387 55.0783 366.393 55.3769V115.385H344.19V41.0467C348.164 39.6535 352.833 38.3598 358.197 37.1656C363.661 35.8719 369.721 35.2251 376.377 35.2251C377.569 35.2251 379.01 35.3246 380.699 35.5236C382.388 35.6231 384.076 35.8222 385.765 36.1207C387.454 36.3197 389.143 36.6183 390.832 37.0163C392.521 37.3149 393.961 37.713 395.153 38.2105L391.428 56.5711Z" fill="url(#paint2_linear_3_27)"/>
<path d="M455.784 76.7229C455.784 69.8563 454.244 64.383 451.164 60.3029C448.085 56.1233 443.515 54.0334 437.455 54.0334C435.468 54.0334 433.63 54.133 431.941 54.332C430.252 54.4315 428.862 54.5808 427.769 54.7798V94.9342C429.16 95.8298 430.948 96.5762 433.133 97.1733C435.418 97.7704 437.703 98.0689 439.988 98.0689C450.518 98.0689 455.784 90.9536 455.784 76.7229ZM478.434 76.1258C478.434 82.1962 477.689 87.7193 476.199 92.6951C474.709 97.6708 472.523 101.95 469.642 105.533C466.761 109.115 463.185 111.902 458.913 113.892C454.641 115.882 449.724 116.877 444.161 116.877C441.081 116.877 438.2 116.579 435.518 115.982C432.835 115.385 430.252 114.539 427.769 113.444V143H405.566V39.554C407.552 38.9569 409.837 38.4096 412.42 37.912C415.003 37.3149 417.686 36.8173 420.467 36.4193C423.348 36.0212 426.229 35.7226 429.11 35.5236C432.09 35.2251 434.922 35.0758 437.604 35.0758C444.061 35.0758 449.823 36.071 454.89 38.0613C459.956 39.952 464.228 42.6887 467.705 46.2713C471.182 49.7543 473.815 54.0334 475.603 59.1087C477.49 64.184 478.434 69.8564 478.434 76.1258Z" fill="url(#paint3_linear_3_27)"/>
<path d="M560.916 112.698C557.141 113.792 552.273 114.787 546.313 115.683C540.352 116.678 534.093 117.176 527.537 117.176C520.881 117.176 515.318 116.28 510.847 114.489C506.476 112.698 502.999 110.21 500.416 107.025C497.833 103.741 495.995 99.8602 494.902 95.382C493.81 90.9038 493.263 85.9778 493.263 80.604V36.8671H515.467V77.9171C515.467 85.0822 516.41 90.257 518.298 93.4414C520.185 96.6259 523.712 98.2182 528.878 98.2182C530.467 98.2182 532.156 98.1684 533.944 98.0689C535.733 97.8699 537.322 97.6708 538.713 97.4718V36.8671H560.916V112.698Z" fill="url(#paint4_linear_3_27)"/>
<path d="M602.77 99.4124C606.843 99.4124 609.724 99.0143 611.413 98.2182C613.101 97.422 613.946 95.8796 613.946 93.5907C613.946 91.7994 612.853 90.257 610.667 88.9633C608.482 87.57 605.154 86.0276 600.683 84.3358C597.206 83.0421 594.027 81.6987 591.146 80.3054C588.365 78.9122 585.981 77.2702 583.994 75.3794C582.007 73.3891 580.467 71.0505 579.374 68.3636C578.282 65.6767 577.735 62.4425 577.735 58.6609C577.735 51.2968 580.467 45.4751 585.931 41.196C591.395 36.9168 598.895 34.7773 608.432 34.7773C613.201 34.7773 617.77 35.2251 622.142 36.1207C626.513 36.9168 629.99 37.8125 632.573 38.8076L628.698 56.1233C626.115 55.2276 623.284 54.4315 620.204 53.7349C617.224 53.0383 613.846 52.69 610.071 52.69C603.117 52.69 599.64 54.6305 599.64 58.5116C599.64 59.4073 599.789 60.2034 600.087 60.9C600.385 61.5966 600.981 62.2932 601.876 62.9898C602.77 63.5869 603.962 64.2835 605.452 65.0796C607.041 65.7762 609.028 66.5724 611.413 67.468C616.28 69.2593 620.304 71.0505 623.483 72.8418C626.662 74.5336 629.145 76.4244 630.933 78.5142C632.821 80.5045 634.112 82.7436 634.808 85.2314C635.603 87.7193 636 90.6053 636 93.8893C636 101.651 633.069 107.523 627.208 111.503C621.446 115.484 613.25 117.474 602.621 117.474C595.667 117.474 589.855 116.877 585.186 115.683C580.616 114.489 577.437 113.494 575.649 112.698L579.374 94.6356C583.149 96.1284 587.024 97.3225 590.997 98.2182C594.971 99.0143 598.895 99.4124 602.77 99.4124Z" fill="url(#paint5_linear_3_27)"/>
<defs>
<linearGradient id="paint0_linear_3_27" x1="156" y1="60.5048" x2="642.491" y2="60.5048" gradientUnits="userSpaceOnUse">
<stop stop-color="#C77CFF"/>
<stop offset="1" stop-color="#9E59FF"/>
</linearGradient>
<linearGradient id="paint1_linear_3_27" x1="156" y1="60.5048" x2="642.491" y2="60.5048" gradientUnits="userSpaceOnUse">
<stop stop-color="#C77CFF"/>
<stop offset="1" stop-color="#9E59FF"/>
</linearGradient>
<linearGradient id="paint2_linear_3_27" x1="156" y1="60.5048" x2="642.491" y2="60.5048" gradientUnits="userSpaceOnUse">
<stop stop-color="#C77CFF"/>
<stop offset="1" stop-color="#9E59FF"/>
</linearGradient>
<linearGradient id="paint3_linear_3_27" x1="156" y1="60.5048" x2="642.491" y2="60.5048" gradientUnits="userSpaceOnUse">
<stop stop-color="#C77CFF"/>
<stop offset="1" stop-color="#9E59FF"/>
</linearGradient>
<linearGradient id="paint4_linear_3_27" x1="156" y1="60.5048" x2="642.491" y2="60.5048" gradientUnits="userSpaceOnUse">
<stop stop-color="#C77CFF"/>
<stop offset="1" stop-color="#9E59FF"/>
</linearGradient>
<linearGradient id="paint5_linear_3_27" x1="156" y1="60.5048" x2="642.491" y2="60.5048" gradientUnits="userSpaceOnUse">
<stop stop-color="#C77CFF"/>
<stop offset="1" stop-color="#9E59FF"/>
</linearGradient>
</defs>
</svg>
